<?xml version="1.0" encoding="UTF-8"?>
<!DOCTYPE svg PUBLIC "-//W3C//DTD SVG 1.1//EN" "http://www.w3.org/Graphics/SVG/1.1/DTD/svg11.dtd">
<!-- Creator: CorelDRAW 2019 (64-Bit) -->
<svg xmlns="http://www.w3.org/2000/svg" xml:space="preserve" width="108px" height="108px" version="1.1" style="shape-rendering:geometricPrecision; text-rendering:geometricPrecision; image-rendering:optimizeQuality; fill-rule:evenodd; clip-rule:evenodd"
viewBox="0 0 108 108"
 xmlns:xlink="http://www.w3.org/1999/xlink"
 xmlns:xodm="http://www.corel.com/coreldraw/odm/2003">
 <defs>
  <style type="text/css">
   <![CDATA[
    .fil0 {fill:none}
    .fil2 {fill:#FEFEFE;fill-rule:nonzero}
    .fil1 {fill:#2B2A29;fill-rule:nonzero}
   ]]>
  </style>
 </defs>
 <g id="Layer_x0020_1">
  <metadata id="CorelCorpID_0Corel-Layer"/>
  <rect class="fil0" width="108" height="108"/>
  <g id="_789249456">
   <path class="fil1" d="M47 52l-9 0 0 -6c0,-2 0,-3 0,-3 0,0 -1,-1 -1,-1 -1,0 -1,0 -1,1 0,1 0,2 0,3l0 16c0,2 0,3 0,3 0,0 1,1 1,1 1,0 1,0 1,-1 0,-1 0,-2 0,-4l0 -4 9 0 0 1c0,4 0,6 -1,7 0,1 -2,3 -3,4 -2,1 -4,2 -6,2 -3,0 -5,0 -6,-1 -2,-1 -3,-2 -3,-4 -1,-2 -1,-4 -1,-7l0 -10c0,-2 0,-4 0,-5 0,-1 1,-2 2,-4 1,-1 2,-2 3,-3 1,-1 3,-1 5,-1 3,0 5,1 6,2 2,1 3,2 3,4 1,1 1,4 1,7l0 3zm18 -15l-10 35 -6 0 10 -35 6 0zm11 1l0 27 5 0 0 7 -14 0 0 -34 9 0z"/>
   <path class="fil2" d="M46 51l-9 0 0 -6c0,-2 0,-3 0,-3 0,0 -1,-1 -1,-1 -1,0 -1,0 -1,1 0,1 0,2 0,3l0 16c0,2 0,3 0,3 0,0 1,1 1,1 1,0 1,0 1,-1 0,-1 0,-2 0,-4l0 -4 9 0 0 1c0,4 0,6 -1,7 0,1 -2,3 -3,4 -2,1 -4,2 -6,2 -3,0 -5,0 -6,-1 -2,-1 -3,-2 -3,-4 -1,-2 -1,-4 -1,-7l0 -10c0,-2 0,-4 0,-5 0,-1 1,-2 1,-4 1,-1 2,-2 3,-3 1,-1 3,-1 5,-1 3,0 5,1 6,2 2,1 3,2 3,4 1,1 1,4 1,7l0 3zm18 -15l-10 35 -6 0 10 -35 6 0zm11 1l0 27 5 0 0 7 -14 0 0 -34 9 0z"/>
  </g>
 </g>
</svg>
